<?xml version="1.0" encoding="utf-8"?>
<!-- Generator: Adobe Illustrator 23.0.3, SVG Export Plug-In . SVG Version: 6.00 Build 0)  -->
<svg version="1.1" id="Layer_1" xmlns="http://www.w3.org/2000/svg" xmlns:xlink="http://www.w3.org/1999/xlink" x="0px" y="0px"
	 viewBox="0 0 864 864" style="enable-background:new 0 0 864 864;" xml:space="preserve">
<path d="M543.55,472.17l53.52-36.96l-64.63,7.39l27.87-58.77l-52.27,38.71l-5.25-64.84l-25.91,59.66l-36.96-53.53l7.39,64.63
	l-58.77-27.87l38.71,52.27l-64.84,5.25l59.66,25.91l-53.52,36.96l64.63-7.39l-27.87,58.77l52.27-38.71l5.25,64.84l25.91-59.66
	l36.96,53.52l-7.39-64.63l58.77,27.87l-38.71-52.27l64.84-5.25L543.55,472.17z M498.65,491.11c-7.19,8.75-20.11,10.01-28.85,2.82
	c-8.75-7.19-10.01-20.11-2.82-28.85c7.19-8.75,20.11-10.01,28.85-2.82C504.58,469.45,505.84,482.37,498.65,491.11z M516.01,387.15
	c2.28-2.77,6.37-3.17,9.14-0.89c2.77,2.28,3.17,6.37,0.89,9.14c-2.28,2.77-6.37,3.17-9.14,0.89
	C514.14,394.01,513.74,389.92,516.01,387.15z M466.55,382.44c0.59-3.54,3.93-5.93,7.47-5.34c3.54,0.59,5.93,3.93,5.34,7.47
	c-0.59,3.54-3.93,5.93-7.47,5.34C468.35,389.32,465.96,385.97,466.55,382.44z M421.35,403.09c-1.26-3.36,0.44-7.1,3.8-8.36
	c3.36-1.26,7.1,0.44,8.36,3.8c1.26,3.36-0.44,7.1-3.8,8.36C426.36,408.15,422.61,406.45,421.35,403.09z M392.54,443.58
	c-2.77-2.28-3.17-6.37-0.89-9.14c2.28-2.77,6.37-3.17,9.14-0.89c2.77,2.28,3.17,6.37,0.89,9.14
	C399.4,445.45,395.31,445.85,392.54,443.58z M387.83,493.04c-3.54-0.59-5.93-3.93-5.34-7.47c0.59-3.54,3.93-5.93,7.47-5.34
	c3.54,0.59,5.93,3.93,5.34,7.47C394.71,491.24,391.37,493.63,387.83,493.04z M400.13,534.44c-1.26-3.36,0.44-7.1,3.8-8.36
	c3.36-1.26,7.1,0.44,8.36,3.8c1.26,3.36-0.44,7.1-3.8,8.36C405.13,539.5,401.39,537.8,400.13,534.44z M448.97,567.05
	c-2.28,2.77-6.37,3.17-9.14,0.89c-2.77-2.28-3.17-6.37-0.89-9.14c2.28-2.77,6.37-3.17,9.14-0.89
	C450.85,560.19,451.25,564.28,448.97,567.05z M498.44,571.76c-0.59,3.54-3.93,5.93-7.47,5.34c-3.54-0.59-5.93-3.93-5.34-7.47
	c0.59-3.54,3.93-5.93,7.47-5.34C496.63,564.88,499.02,568.22,498.44,571.76z M543.63,551.1c1.26,3.36-0.44,7.1-3.8,8.36
	c-3.36,1.26-7.1-0.44-8.36-3.8c-1.26-3.36,0.44-7.1,3.8-8.36C538.63,546.05,542.37,547.75,543.63,551.1z M572.44,510.62
	c2.77,2.28,3.17,6.37,0.89,9.14c-2.28,2.77-6.37,3.17-9.14,0.89c-2.77-2.28-3.17-6.37-0.89-9.14
	C565.58,508.74,569.67,508.34,572.44,510.62z M577.15,461.15c3.54,0.59,5.93,3.93,5.34,7.47c-0.59,3.54-3.93,5.93-7.47,5.34
	c-3.54-0.59-5.93-3.93-5.34-7.47C570.27,462.96,573.61,460.57,577.15,461.15z M564.86,419.76c1.26,3.36-0.44,7.1-3.8,8.36
	c-3.36,1.26-7.1-0.44-8.36-3.8c-1.26-3.36,0.44-7.1,3.8-8.36C559.85,414.7,563.6,416.4,564.86,419.76z M791.75,529.94
	c-17.19-15.29-55.68-39.65-70.52-49.41c17.07-11.9,54.89-43.1,70.53-60.23c4.28-4.69,2.52-11.3-3.54-13.4
	c-21.71-7.54-66.58-15.31-84.06-18.66c11.22-17.53,34.22-60.82,42.11-82.64c2.16-5.97-2-11.41-8.4-11.03
	c-22.97,1.35-67.41,11.34-84.81,14.93c3.66-20.49,8.34-69.28,7.28-92.46c-0.29-6.34-6.21-9.77-11.98-6.98
	c-20.7,10.03-57.94,36.27-72.64,46.24c-4.46-20.33-18.81-67.2-28.66-88.21c-2.69-5.75-9.48-6.65-13.74-1.86
	c-15.29,17.19-39.65,55.68-49.41,70.52c-11.9-17.07-43.1-54.89-60.23-70.53c-4.69-4.28-11.3-2.52-13.4,3.54
	c-7.54,21.71-15.31,66.58-18.66,84.06c-17.53-11.22-60.82-34.22-82.64-42.11c-5.97-2.16-11.4,2-11.03,8.4
	c1.35,22.97,11.34,67.41,14.93,84.81c-20.49-3.66-69.28-8.34-92.46-7.28c-6.34,0.29-9.77,6.21-6.98,11.98
	c10.03,20.7,36.27,57.94,46.24,72.64c-20.33,4.46-67.2,18.81-88.21,28.66c-5.75,2.69-6.65,9.48-1.86,13.74
	c17.19,15.29,55.68,39.65,70.52,49.41c-17.07,11.9-54.89,43.1-70.53,60.23c-4.28,4.69-2.52,11.3,3.54,13.4
	c21.71,7.54,66.58,15.31,84.06,18.66c-11.22,17.53-34.22,60.82-42.11,82.64c-2.16,5.97,2,11.41,8.4,11.03
	c22.97-1.35,67.41-11.34,84.81-14.93c-3.66,20.49-8.34,69.28-7.28,92.46c0.29,6.34,6.21,9.77,11.98,6.98
	c20.7-10.03,57.94-36.27,72.64-46.24c4.46,20.33,18.81,67.2,28.66,88.21c2.69,5.75,9.48,6.65,13.74,1.86
	c15.29-17.19,39.65-55.69,49.41-70.52c11.9,17.07,43.1,54.89,60.23,70.53c4.69,4.28,11.3,2.52,13.4-3.54
	c7.54-21.71,15.31-66.58,18.66-84.06c17.53,11.22,60.82,34.22,82.64,42.11c5.97,2.16,11.4-2,11.03-8.4
	c-1.35-22.97-11.34-67.41-14.93-84.8c20.49,3.66,69.28,8.34,92.46,7.28c6.34-0.29,9.77-6.21,6.98-11.98
	c-10.03-20.7-36.27-57.94-46.24-72.64c20.33-4.46,67.2-18.81,88.21-28.66C795.63,540.99,796.54,534.21,791.75,529.94z
	 M712.37,471.91l-15.35,2.07c-1.57-1.37-3.24-2.7-4.97-3.98l20.16-2.72C712.28,468.81,712.33,470.36,712.37,471.91z M590.3,551.8
	c2.07-3.04,4.02-6.18,5.84-9.4c0.34,2.34,1.57,9.61,4.55,18.22L590.3,551.8z M604.75,570.45c2.04,4.21,4.53,8.4,7.56,12.27
	l-27.57-23.39c0.89-1.12,1.78-2.24,2.63-3.4L604.75,570.45z M598.16,538.72c0.9-1.73,1.78-3.47,2.61-5.25l6.06,1.77
	C602.6,536.73,599.51,538.09,598.16,538.72z M602.84,528.8c0.16-0.38,0.34-0.76,0.5-1.14c0.43-1.05,0.81-2.11,1.21-3.16l21.03,6.15
	c-3.46,0.49-6.77,1.15-9.83,1.93L602.84,528.8z M598.65,525.73c-12.72,30.94-36.73,55.08-67.6,67.96s-64.92,12.97-95.86,0.24
	c-30.94-12.72-55.08-36.73-67.96-67.6c-12.88-30.87-12.97-64.92-0.25-95.86c12.49-30.36,35.64-53.13,63.33-65.92l0.08,0.01
	l0.04-0.07c22.96-10.57,49.01-14.31,74.77-9.63c8.49,1.54,16.95,4,25.24,7.41c30.94,12.73,55.07,36.73,67.95,67.61
	S611.37,494.79,598.65,525.73z M571.83,573.32c1.13-1.06,2.26-2.11,3.35-3.21l15.07,12.78c-3.26-0.84-6.42-1.46-9.38-1.91
	L571.83,573.32z M571.86,579.99c-3.45-0.23-6.07-0.26-7.46-0.24c1.23-0.98,2.43-1.99,3.62-3.02L571.86,579.99z M557.27,613.64
	c0.35,5.88,1.45,11.95,3.61,17.71l-18.09-37.6c1.27-0.66,2.53-1.33,3.78-2.03L557.27,613.64z M550.98,589.17
	c3.33-2.03,6.55-4.19,9.66-6.5c-0.75,2.71-2.59,10.21-3.26,19.57L550.98,589.17z M539.5,617.36c-3.32-2.69-6.65-4.97-9.77-6.9
	l-4.43-9.21c1.48-0.51,2.94-1.09,4.41-1.66L539.5,617.36z M521.99,606.06c-2.05-1.05-3.68-1.8-4.82-2.3
	c1.09-0.3,2.17-0.63,3.25-0.96L521.99,606.06z M511.52,605.16c-2.15,2.66-6.87,8.92-11.13,17.19l-0.55-15.08
	C503.75,606.75,507.64,606.04,511.52,605.16z M477.81,626.4c-1.96-3.69-4.07-7.05-6.09-9.96l-0.25-8.53
	c1.57,0.14,3.14,0.26,4.71,0.34L477.81,626.4z M466.55,609.59c-0.81-0.99-1.53-1.83-2.14-2.52c0.67,0.1,1.34,0.21,2.02,0.29
	L466.55,609.59z M456.81,605.77c-3.55,1.89-10.04,5.66-16.79,11.18l5.73-13.93C449.41,604.11,453.1,605.01,456.81,605.77z
	 M423.8,594.24l-5.36,16.2c-0.32-4.23-0.89-8.21-1.58-11.7l2.75-6.7C421,592.79,422.39,593.53,423.8,594.24z M415.22,589.51
	l-0.34,0.89c-0.13-0.46-0.26-0.94-0.38-1.34C414.74,589.2,414.97,589.36,415.22,589.51z M406.31,583.61
	c-4.2,0.36-10.92,1.22-18.34,3.23l10.14-9.69C400.76,579.41,403.49,581.57,406.31,583.61z M371.04,548.29
	c-0.86,7.66-5.35,37.24-24.59,49.1c-19.21,11.84-47.67,2.58-54.92-0.09c0.86-7.67,5.39-37.27,24.6-49.11
	C335.33,536.35,363.81,545.61,371.04,548.29z M353.37,538.36l11.8-4.22c1.33,2.81,2.79,5.53,4.31,8.22
	C365.63,541.07,359.97,539.45,353.37,538.36z M373.86,561.64l4.89-5.07c0.93,1.24,1.89,2.45,2.86,3.65l-10.84,11.88
	C372.07,568.44,373.09,564.89,373.86,561.64z M375.63,552.41c0.01-0.05,0.02-0.11,0.02-0.16c0.02,0.03,0.04,0.05,0.06,0.08
	L375.63,552.41z M352.48,476.4l-20.45-1.54c-4.53-2.29-9.46-4.23-14.63-5.39l35.18,2.65C352.51,473.55,352.5,474.97,352.48,476.4z
	 M352.97,489.38c-2.74-2.46-6.55-5.59-11.14-8.71l10.7,0.81C352.59,484.12,352.73,486.75,352.97,489.38z M352.72,496.1
	c-3.9,6.65-20.04,31.85-42.44,34.86c-22.35,3-44.61-17.04-50.13-22.42c3.9-6.65,20.04-31.85,42.44-34.86
	C324.95,470.7,347.19,490.72,352.72,496.1z M349.8,509.53l6.05-2.16c0.36,1.54,0.74,3.08,1.16,4.62l-15.96,7.54
	C344.43,516.16,347.36,512.71,349.8,509.53z M354.08,457.82l-15.66-0.75c3.43-1.36,6.62-2.86,9.47-4.37l6.98,0.53
	C354.57,454.75,354.32,456.29,354.08,457.82z M355.47,448.28c0.19-0.12,0.4-0.25,0.58-0.37c-0.03,0.13-0.05,0.25-0.08,0.38
	L355.47,448.28z M309.52,456.62l-8.83-2.34c-19.43-8.11-30.43-32.83-33.12-39.59c6.27-4.49,31.31-20.89,52.95-14.58
	c21.65,6.35,33.82,33.71,36.67,40.88C351.43,445.11,329.76,459.28,309.52,456.62z M339.42,405.28l26.91,14.5
	c-0.64,1.27-1.26,2.55-1.86,3.85l-16.17-8.71C345.71,411.54,342.77,408.24,339.42,405.28z M354.48,423.99l7.94,4.28
	c-0.04,0.09-0.08,0.18-0.12,0.27c-0.82,2-1.59,4.01-2.31,6.03C358.67,431.63,356.83,427.95,354.48,423.99z M386.73,367.2
	c-0.81-3.76-1.94-7.62-3.42-11.41l16.76,21.69c-1.1,0.9-2.18,1.84-3.25,2.78L386.73,367.2z M393.06,383.68
	c-1.42,1.35-2.82,2.73-4.18,4.15c-0.01-2.82-0.16-6.36-0.56-10.29L393.06,383.68z M383.71,392.44c-7.56,1.56-37.09,6.41-54.3-8.22
	c-17.2-14.61-17.19-44.55-16.88-52.26c7.55-1.56,37.08-6.42,54.3,8.22C384.03,354.79,384.02,384.74,383.71,392.44z M379.81,398.31
	c-0.28,0.36-0.58,0.72-0.85,1.08l-1.75-0.71C378.14,398.57,379,398.44,379.81,398.31z M368.74,399.47l7.32,3.94
	c-0.89,1.28-1.76,2.57-2.62,3.89l-16.51-7.97C361.08,399.65,365.08,399.65,368.74,399.47z M411.7,368.98l-11.42-14.78
	c3.11,1.69,6.22,3.14,9.19,4.35l6.15,7.96C414.3,367.3,413,368.14,411.7,368.98z M418.29,361.67c1.44,0.44,2.77,0.82,3.97,1.13
	c-0.73,0.38-1.46,0.78-2.18,1.18L418.29,361.67z M434.01,357.36c1.06-2.37,2.28-5.37,3.48-8.85l1.67,6.87
	C437.43,356.01,435.71,356.67,434.01,357.36z M440.31,338.7c0.8-3.44,1.43-7.07,1.76-10.82l6.02,24.7l0.28-0.07
	c-1.47,0.4-2.93,0.81-4.38,1.27L440.31,338.7z M457.21,329.18c2.15,2.95,4.44,5.63,6.71,8.08l2.82,11.58
	c-1.53,0.19-3.07,0.39-4.59,0.64L457.21,329.18z M470.77,343.94c1.79,1.59,3.42,2.95,4.82,4.06c-1.26,0.07-2.51,0.19-3.76,0.3
	L470.77,343.94z M487.25,347.87c1.88-1.66,4.23-3.86,6.79-6.56l-1.25,6.87C490.94,348.04,489.1,347.93,487.25,347.87z
	 M497.85,348.68l2.73-15.01c2.09-2.7,4.11-5.64,5.94-8.8l-4.43,24.36C500.68,349.02,499.27,348.84,497.85,348.68z M516.2,352.16
	l4.09-22.51c0.72,3.69,1.68,7.22,2.78,10.5l-2.41,13.26C519.18,352.96,517.69,352.56,516.2,352.16z M525.53,354.99l1.06-5.8
	c1.35,3.04,2.65,5.66,3.69,7.58C528.69,356.16,527.11,355.55,525.53,354.99z M539.22,360.64c2.48-0.74,5.9-1.89,9.82-3.5l-4.3,6.3
	C542.94,362.47,541.09,361.54,539.22,360.64z M549.18,365.94l8.92-13.08c2.98-1.59,6-3.44,8.95-5.54l-14.24,20.87
	C551.61,367.42,550.41,366.66,549.18,365.94z M568.1,379.53c-1.17-1.01-2.35-2.01-3.55-2.98l13.54-19.84
	c-0.86,3.69-1.46,7.35-1.81,10.83L568.1,379.53z M576.19,387.14c-1.4-1.43-2.82-2.83-4.28-4.2l3.89-5.7
	C575.77,381.4,575.98,384.82,576.19,387.14z M586.05,398.53c-1.47-1.91-2.99-3.77-4.56-5.6c2.65,0.37,6.91,0.84,12.06,0.96
	L586.05,398.53z M603.63,393.63c3.44-0.27,7.02-0.77,10.62-1.54l-22.77,14.06c-0.79-1.19-1.6-2.36-2.43-3.52L603.63,393.63z
	 M600.78,422.75c-0.66-1.4-1.35-2.78-2.05-4.15l20.59-12.71c-2.22,2.99-4.16,6.05-5.84,9.03L600.78,422.75z M609.14,423.55
	c-1.93,4.34-3.21,7.92-3.88,9.98c-0.69-1.88-1.41-3.75-2.18-5.61c-0.07-0.17-0.15-0.33-0.22-0.49L609.14,423.55z M607.16,439.15
	c2.21,1.43,6.7,4.15,12.62,6.88l-10.3,1.39C608.8,444.65,608.03,441.89,607.16,439.15z M613.14,480.65l7.04-0.95
	c-3.61,3.31-6.15,6.07-7.34,7.42C613,484.96,613.09,482.81,613.14,480.65z M612.99,470.9l23.11-3.12c-3.11,1.84-5.99,3.82-8.62,5.82
	l-14.35,1.94C613.11,473.99,613.08,472.45,612.99,470.9z M622.59,505.03L611,501.64c0.6-3.25,1.08-6.52,1.43-9.8
	C613.74,493.9,617.27,499.14,622.59,505.03z M610.61,452.38l18.73-2.53c3.41,1.15,7.03,2.16,10.79,2.85l-28.77,3.89
	C611.12,455.19,610.89,453.78,610.61,452.38z M609.96,506.62l20.21,5.91c2.96,2.61,6.21,5.11,9.73,7.3l-30.94-9.05
	C609.32,509.39,609.65,508.01,609.96,506.62z M617.2,489.86c5.21-5.7,26.26-26.98,48.76-25.27c22.57,1.73,40.09,25.94,44.37,32.36
	c-5.21,5.7-26.26,26.98-48.76,25.27C639.04,520.49,621.48,496.28,617.2,489.86z M711.9,462.2l-26.31,3.55
	c-2.47-1.4-5.08-2.61-7.78-3.6l33.7-4.55C711.66,459.13,711.79,460.66,711.9,462.2z M711.04,452.55l-55,7.43l-15.24,2.06l-28.2,3.81
	c-0.14-1.42-0.32-2.83-0.5-4.24l98.37-13.29C710.66,449.73,710.87,451.13,711.04,452.55z M709.8,443.29l-38.18,5.16
	c2.76-1.54,5.34-3.33,7.7-5.35l29.74-4.02C709.31,440.49,709.59,441.89,709.8,443.29z M708.17,434.15l-23.91,4.14
	c1.54-1.67,2.99-3.4,4.32-5.17l18.87-2.55C707.7,431.76,707.93,432.96,708.17,434.15z M705.3,421.32c0.37,1.42,0.66,2.87,1,4.3
	l-13.9,1.97c1.05-1.66,2-3.3,2.88-4.91L705.3,421.32z M702.97,413.04c0.34,1.14,0.65,2.28,0.97,3.42l-5.95,0.94
	c0.63-1.33,1.21-2.61,1.73-3.82L702.97,413.04z M663.82,446.52c-21.24,7.58-47.18-7.39-53.7-11.51
	c2.43-7.32,13.01-35.33,34.26-42.92c21.24-7.58,47.18,7.39,53.7,11.52C695.66,410.93,685.1,438.92,663.82,446.52z M697.73,397.44
	c-1.62-0.95-3.58-2.03-5.86-3.18l3.67-2.44C696.3,393.69,697.03,395.56,697.73,397.44z M693.54,387.06l-7.1,4.63
	c-1.4-0.61-2.85-1.21-4.37-1.78l9.99-6.17C692.56,384.84,693.06,385.94,693.54,387.06z M689.95,379.07l-14.15,8.74
	c-2.02-0.6-4.1-1.13-6.23-1.58l18.29-11.29C688.56,376.32,689.29,377.68,689.95,379.07z M685.58,370.4l-23.83,14.71
	c-2.89-0.23-5.82-0.29-8.75-0.02l30.33-18.73C684.09,367.71,684.86,369.04,685.58,370.4z M680.85,361.95l-47.11,29.08l-13.08,8.08
	l-24.33,15.02c-0.7-1.24-1.39-2.49-2.12-3.71l84.45-52.14C679.4,359.5,680.13,360.72,680.85,361.95z M675.95,353.99l-32.07,19.8
	c1.71-2.45,3.17-5.04,4.38-7.73l25.39-15.67C674.45,351.58,675.18,352.79,675.95,353.99z M657.5,329.08
	c0.76,0.89,1.54,1.77,2.28,2.67l-5.3,3.34c0.02-1.41,0.02-2.75-0.01-4L657.5,329.08z M654.19,341.13l8.77-5.41
	c0.91,1.16,1.82,2.32,2.71,3.5l-12.07,7.55C653.85,344.84,654.05,342.96,654.19,341.13z M652.46,353.31l16.23-10.02
	c0.71,0.99,1.4,2,2.09,3l-20.09,13.45C651.38,357.6,651.99,355.45,652.46,353.31z M648.93,323.31c0.76,7.68,2.51,37.54-13.85,53.15
	l0,0c-16.33,15.57-46.11,12.43-53.74,11.32c-0.76-7.68-2.51-37.54,13.85-53.14C611.52,319.06,641.3,322.2,648.93,323.31z
	 M642.12,312.69c1.82,1.75,3.62,3.52,5.37,5.32c-2.13-0.27-5-0.54-8.31-0.69L642.12,312.69z M638.38,309.09l-5.24,8.1
	c-1.54,0.02-3.13,0.07-4.76,0.17l7.29-10.68C636.57,307.48,637.49,308.27,638.38,309.09z M631.82,303.32l-10.02,14.69
	c-2.1,0.28-4.21,0.64-6.34,1.12l12.83-18.8C629.48,301.31,630.64,302.32,631.82,303.32z M624.29,297.18l-16.5,24.18
	c-2.79,1-5.51,2.21-8.11,3.7l20.98-30.74C621.9,295.25,623.08,296.23,624.29,297.18z M616.53,291.37l-31.21,45.74l-8.67,12.7
	l-16.12,23.63c-1.14-0.85-2.32-1.65-3.49-2.46l56.01-82.08C614.23,289.71,615.38,290.55,616.53,291.37z M608.84,286.08l-21.42,31.4
	c0.51-2.87,0.73-5.76,0.73-8.64l17.09-25.05C606.45,284.54,607.66,285.3,608.84,286.08z M601,281.12l-13.24,21.03
	c-0.26-2.23-0.59-4.44-1.04-6.58l11.1-16.26C598.87,279.92,599.96,280.49,601,281.12z M593.41,276.8l-8.33,12.38
	c-0.55-1.87-1.14-3.67-1.76-5.38l6.2-9.08C590.82,275.4,592.12,276.09,593.41,276.8z M581.84,270.85c1.05,0.5,2.07,1.05,3.11,1.56
	l-3.87,5.67c-0.54-1.26-1.07-2.43-1.59-3.53L581.84,270.85z M577.18,268.74l-0.36,0.56c-0.19-0.36-0.36-0.64-0.53-0.95
	C576.59,268.48,576.88,268.61,577.18,268.74z M577.6,283.17l-0.12,0.18l0.27,0.18c4.38,11.35,8.12,27.15,2.59,40.6
	c-8.58,20.87-37.06,30.11-44.49,32.2c-3.81-6.71-17.54-33.31-8.96-54.18c8.58-20.87,37.06-30.11,44.49-32.2
	C572.7,272.29,575.23,277.08,577.6,283.17z M561.11,262.2c2.71,0.98,5.42,1.99,8.11,3.09c-2.11,0.6-5.27,1.6-9.02,3.06L561.11,262.2
	z M552.76,259.37c1.16,0.37,2.31,0.72,3.47,1.11l-1.6,10.19c-1.4,0.64-2.84,1.34-4.3,2.09L552.76,259.37z M543.42,256.59
	c1.49,0.41,2.98,0.78,4.47,1.22l-3.31,18.22c-1.8,1.11-3.59,2.29-5.34,3.59L543.42,256.59z M534.02,254.18
	c1.5,0.34,2.99,0.73,4.49,1.1l-5.36,29.44c-2.12,2.02-4.12,4.19-5.88,6.57L534.02,254.18z M529.06,253.15l-9.9,54.4l-2.75,15.13
	l-5.14,28.28c-1.39-0.31-2.78-0.64-4.17-0.9l17.78-97.78C526.28,252.53,527.67,252.86,529.06,253.15z M519.88,251.43l-7.01,38.54
	c-0.69-2.87-1.65-5.65-2.83-8.31l5.62-30.9C517.07,250.96,518.48,251.2,519.88,251.43z M507.06,249.69
	c1.21,0.13,2.42,0.27,3.63,0.42l-3.68,25.62c-1.15-1.96-2.35-3.88-3.65-5.68L507.06,249.69z M497.6,248.89
	c1.47,0.09,2.94,0.19,4.41,0.32l-2.75,15.66c-1.27-1.49-2.53-2.89-3.8-4.22L497.6,248.89z M489.02,248.52
	c1.16,0.03,2.32,0.05,3.48,0.1l-1.4,7.72c-0.99-0.92-1.94-1.77-2.86-2.56L489.02,248.52z M483.91,248.41l-0.24,1.64
	c-0.89-0.68-1.58-1.19-2.16-1.61C482.31,248.43,483.11,248.4,483.91,248.41z M509.03,298.6c0.65,22.55-21.61,42.58-27.54,47.51
	c-6.21-4.58-29.58-23.3-30.23-45.85s21.61-42.58,27.54-47.51C485.02,257.33,508.39,276.05,509.03,298.6z M475.97,248.52
	c-1.51,1.22-4.28,3.58-7.6,6.88l-1.78-6.39C469.7,248.78,472.83,248.62,475.97,248.52z M461.44,249.47l2.78,10.31
	c-1.03,1.15-2.06,2.35-3.1,3.63l-3.31-13.57C459.01,249.69,460.23,249.58,461.44,249.47z M452.74,250.46l4.43,18.2
	c-1.2,1.72-2.35,3.52-3.43,5.39l-5.59-22.94C449.68,250.87,451.21,250.66,452.74,250.46z M443.14,251.95l7.08,29.05
	c-1.13,2.63-2.07,5.37-2.75,8.19l-8.87-36.39C440.11,252.49,441.63,252.22,443.14,251.95z M433.64,253.84l13.06,53.61l3.64,14.94
	l6.82,28c-1.4,0.28-2.78,0.61-4.16,0.94l-23.52-96.53C430.86,254.46,432.25,254.15,433.64,253.84z M424.57,256.03l9.7,39.81
	c-1.82-2.5-3.85-4.81-6.07-6.89l-7.75-31.8C421.81,256.77,423.19,256.4,424.57,256.03z M415.64,258.57l7.41,26.14
	c-1.87-1.38-3.78-2.67-5.73-3.83l-5.17-21.2C413.31,259.31,414.48,258.93,415.64,258.57z M407.34,261.29l4.11,16.44
	c-1.76-0.86-3.5-1.64-5.21-2.35l-3.07-12.58C404.56,262.29,405.95,261.77,407.34,261.29z M398.41,264.61l2.09,8.57
	c-1.57-0.55-3.05-1.02-4.44-1.43l0.7-0.2l-1.57-5.61C396.26,265.49,397.33,265.03,398.41,264.61z M433.52,304.28
	c9.77,20.34-2.42,47.69-5.84,54.61c-7.53-1.65-36.48-9.22-46.26-29.59c-9.77-20.34,2.42-47.69,5.84-54.61
	C394.78,276.34,423.73,283.91,433.52,304.28z M390.48,267.9l0.7,2.5c-1.85-0.46-3.29-0.77-4.11-0.93
	C388.2,268.95,389.33,268.4,390.48,267.9z M383.34,271.19c-0.7,1.32-2.38,4.66-4.23,9.32l-4.19-5.06
	C377.7,273.97,380.51,272.55,383.34,271.19z M370.4,277.94l6.67,8.22c-0.48,1.45-0.94,2.96-1.39,4.53l-8.46-10.96
	C368.27,279.13,369.34,278.54,370.4,277.94z M362.84,282.36l11.3,14.63c-0.42,2.03-0.74,4.12-1,6.25l-14.24-18.43
	C360.21,283.98,361.52,283.17,362.84,282.36z M354.66,287.6l17.95,23.23c-0.02,2.77,0.2,5.55,0.61,8.33l-22.38-28.96
	C352.1,289.32,353.38,288.46,354.66,287.6z M346.73,293.17l31.49,40.76c2.11,3.69,4.69,7.01,7.65,9.9l4,5.17l17.64,22.84
	c-1.16,0.82-2.31,1.66-3.45,2.52l-60.76-78.63C344.43,294.86,345.58,294.01,346.73,293.17z M339.31,298.84l26.5,34.3
	c-2.77-1.78-5.71-3.19-8.74-4.33l-21.08-27.28C337.09,300.63,338.2,299.73,339.31,298.84z M332.17,304.77l18.39,22.07
	c-2.28-0.55-4.56-0.96-6.83-1.27l-14.3-18.37C330.34,306.38,331.25,305.57,332.17,304.77z M325.67,310.6l11.2,14.3
	c-2.17-0.1-4.26-0.1-6.29-0.06l0.34-0.26l-8.43-10.91C323.55,312.65,324.6,311.61,325.67,310.6z M318.85,317.26l6.08,7.86
	c-1.24,0.1-2.42,0.2-3.55,0.33l-4.88-5.72C317.28,318.9,318.05,318.07,318.85,317.26z M312.93,323.47l2.33,2.82
	c-3.27,0.55-5.43,1.07-5.77,1.16l-0.04,0.01C310.61,326.13,311.75,324.78,312.93,323.47z M307.6,329.58l-0.01,0.11
	c-0.04,0.49-0.34,4.31-0.16,9.86l-5.66-2.81C303.67,334.31,305.61,331.92,307.6,329.58z M298.64,340.86l9.16,4.65
	c0.13,1.5,0.31,3.05,0.53,4.67l-11.84-6.38C297.2,342.81,297.92,341.83,298.64,340.86z M293.54,347.97l15.85,8.54
	c0.41,1.99,0.9,4.01,1.48,6.04l-19.9-10.72C291.82,350.53,292.67,349.24,293.54,347.97z M288.2,356.09l25.13,13.54
	c0.99,2.43,2.13,4.81,3.48,7.11l-31-16.7C286.6,358.72,287.39,357.39,288.2,356.09z M283.23,364.4l41.57,22.39
	c0.45,0.42,0.86,0.89,1.33,1.29c5.28,4.49,11.48,7.3,17.87,9.05l1.44,0.78l25.35,13.65c-0.72,1.22-1.42,2.46-2.11,3.71l-87.49-47.13
	C281.87,366.9,282.53,365.64,283.23,364.4z M278.77,372.61l41.21,22.2c-3.77-0.9-7.58-1.25-11.35-1.15l-31.75-17.21
	C277.52,375.17,278.12,373.87,278.77,372.61z M274.68,380.94l27.06,13.31c-2.36,0.37-4.66,0.9-6.93,1.51l-21.62-11.48
	C273.7,383.16,274.17,382.04,274.68,380.94z M270.38,390.74c0.25-0.61,0.53-1.2,0.79-1.8l16.93,8.98c-1.83,0.68-3.62,1.4-5.31,2.16
	l-13.28-7.06C269.8,392.26,270.07,391.49,270.38,390.74z M267.67,397.8l9.41,5.07c-1.13,0.59-2.2,1.18-3.22,1.76l-7.42-3.62
	C266.82,399.94,267.27,398.87,267.67,397.8z M264.81,405.9l3.83,1.9c-3.31,2.15-5.37,3.75-5.69,4l-0.1,0.08
	C263.46,409.88,264.15,407.89,264.81,405.9z M262.1,414.54l0.03,0.08c0.15,0.43,1.3,3.65,3.44,8.16l-5.66-0.24
	C260.58,419.86,261.33,417.2,262.1,414.54z M258.75,427.57l9.49,0.48c0.7,1.3,1.48,2.65,2.31,4.03l-12.59-0.95
	C258.21,429.94,258.48,428.76,258.75,427.57z M256.94,436.14l17.08,1.29c1.14,1.64,2.35,3.28,3.67,4.9l-21.53-1.62
	C256.42,439.18,256.66,437.66,256.94,436.14z M255.32,445.72l27.3,2.06c1.78,1.79,3.68,3.49,5.71,5.06l-33.56-2.53
	C254.96,448.78,255.11,447.25,255.32,445.72z M254.16,455.34l43.82,3.3c1.56,0.69,3.18,1.29,4.85,1.78c1.36,0.4,2.73,0.72,4.11,0.97
	c6.57,1.2,13.23,0.75,19.52-0.61l26.94,2.03c-0.17,1.41-0.33,2.83-0.45,4.25l-99.13-7.47C253.92,458.18,254.02,456.76,254.16,455.34
	z M253.44,464.65l50.96,3.84c-0.83,0.06-1.66,0.06-2.49,0.17c-4.04,0.54-7.85,1.75-11.46,3.34l-37.24-3.08
	C253.26,467.5,253.36,466.08,253.44,464.65z M253.1,473.93l31.38,1.2c-2.25,1.37-4.4,2.85-6.43,4.46l-25.03-1.99
	C253.02,476.37,253.07,475.15,253.1,473.93z M253.1,482.66l19.87,1.37c-1.52,1.45-2.97,2.91-4.32,4.39l-15.43-1.32
	C253.16,485.62,253.13,484.14,253.1,482.66z M253.47,492.18l11.23,0.85c-0.86,1.07-1.68,2.12-2.44,3.14l-8.52-0.46
	C253.65,494.53,253.55,493.36,253.47,492.18z M254.13,500.74l4.77,0.2c-2.14,3.23-3.47,5.59-3.94,6.45
	C254.67,505.18,254.35,502.96,254.13,500.74z M256.59,517.96c-0.41-2.33-0.84-4.65-1.18-6.99c0.68,0.71,2.61,2.67,5.57,5.25
	L256.59,517.96z M257.49,523.06l8.03-3.09c1.14,0.89,2.39,1.81,3.69,2.73l-10.91,3.9C258.04,525.43,257.73,524.25,257.49,523.06z
	 M259.43,531.59l15.02-5.38c1.68,1.04,3.47,2.04,5.3,3l-19.2,6.87C260.16,534.59,259.79,533.09,259.43,531.59z M261.92,540.97
	l24.37-8.72c2.96,1.2,6.05,2.18,9.23,2.89l-32.31,10.35C262.75,543.99,262.36,542.48,261.92,540.97z M264.79,550.23l38.96-13.94
	c2.38,0.1,4.78,0.02,7.19-0.3c8.98-1.21,16.93-5.46,23.63-10.73l23.8-8.52c0.42,1.36,0.88,2.7,1.35,4.05l-93.58,33.49
	C265.67,552.93,265.24,551.58,264.79,550.23z M267.91,559.03l93.59-33.49c0.36,0.91,0.69,1.83,1.06,2.73
	c0.17,0.41,0.37,0.81,0.54,1.22l-21.99,7.76c-9.3-0.16-19.15,1.4-27.65,6.63c-2.67,1.64-5.03,3.61-7.2,5.73l-36.81,13.4
	C268.93,561.68,268.41,560.36,267.91,559.03z M271.33,567.66l29.58-11.83c-1.63,2.24-3.12,4.57-4.42,6.97l-23.67,8.21
	C272.33,569.9,271.81,568.79,271.33,567.66z M274.89,575.65l18.64-6.57c-0.8,1.91-1.52,3.8-2.16,5.67l-14.53,4.9
	C276.18,578.32,275.52,577,274.89,575.65z M286.43,597.31c-1.11-1.83-2.14-3.72-3.2-5.59l4.23-1.67
	C286.88,593.29,286.57,595.82,286.43,597.31z M280.73,587.33c-0.56-1.04-1.06-2.11-1.61-3.16l10.49-3.75
	c-0.37,1.35-0.7,2.66-0.99,3.93L280.73,587.33z M292.32,606.56c-1.03-1.53-1.98-3.11-2.97-4.67c1.23,0.47,3.16,1.16,5.64,1.94
	L292.32,606.56z M295.3,610.78l5.33-5.35c1.39,0.35,2.88,0.69,4.43,1.01l-7.65,7.31C296.69,612.77,296,611.77,295.3,610.78z
	 M300.46,617.84l10.8-10.32c2.01,0.29,4.07,0.53,6.2,0.68l-14.13,13.31C302.37,620.3,301.4,619.08,300.46,617.84z M306.52,625.47
	l18.18-17.16c2.38-0.07,4.77-0.27,7.17-0.62l-22.33,21.26C308.53,627.79,307.5,626.65,306.52,625.47z M312.85,632.78l28.89-27.6
	c2.53-0.93,5.01-2.02,7.37-3.47c8.1-4.99,13.76-12.59,17.78-20.55l17.93-17.13c0.94,1.07,1.89,2.13,2.86,3.17l-71.89,68.68
	C314.82,634.84,313.81,633.83,312.85,632.78z M319.3,639.53l71.9-68.69c1.01,1,2.05,1.97,3.1,2.94l-18.16,17.26
	c-8.2,3.63-16.12,8.95-21.53,16.86c-1.51,2.21-2.69,4.55-3.72,6.95l-28.57,27.7C321.31,641.55,320.3,640.55,319.3,639.53z
	 M325.97,645.99l22.19-22.86c-0.63,2.74-1.05,5.51-1.28,8.27l-18.26,17.11C327.73,647.69,326.87,646.83,325.97,645.99z
	 M332.47,651.82l14.16-13.7c0.02,1.91,0.1,3.77,0.24,5.61l-11.08,10.95C334.67,653.74,333.57,652.78,332.47,651.82z M339.8,657.91
	l7.81-7.46c0.19,1.29,0.4,2.53,0.62,3.73l-5.69,5.86C341.63,659.33,340.71,658.62,339.8,657.91z M346.61,663.15l2.91-2.97
	c0.63,2.56,1.23,4.67,1.71,6.2C349.68,665.31,348.12,664.26,346.61,663.15z M358.8,610.76c12.74-18.63,42.51-21.75,50.21-22.25
	c2.34,7.35,10.26,36.2-2.5,54.86c-12.73,18.63-42.51,21.75-50.21,22.25C353.97,658.26,346.07,629.38,358.8,610.76z M361.2,672.95
	c-1.24-0.77-2.48-1.54-3.7-2.33c1.32-0.09,3-0.24,5.01-0.48L361.2,672.95z M368.66,677.39c-1.04-0.59-2.1-1.15-3.13-1.76l2.82-6.35
	c1.27-0.22,2.59-0.48,3.96-0.78L368.66,677.39z M373.11,679.89l5.3-12.93c2.04-0.58,4.11-1.26,6.21-2.03l-7.36,17.14
	C375.87,681.35,374.48,680.63,373.11,679.89z M381.8,684.34l9.46-22.19c2.1-1.01,4.14-2.18,6.14-3.45l-11.47,27.64
	C384.53,685.69,383.17,685.01,381.8,684.34z M390.55,688.38l14.71-35.84c1.98-1.91,3.85-3.97,5.44-6.31
	c5.41-7.91,7.48-17.23,7.89-26.19l9.69-23.61c1.29,0.59,2.59,1.17,3.91,1.72l-37.73,91.96
	C393.14,689.55,391.85,688.95,390.55,688.38z M399.17,691.96L436.9,600c1.33,0.5,2.67,1,4.01,1.46l-9.88,24.04
	c-6,6.65-11.07,14.72-12.79,24.13c-0.55,3.03-0.68,6.05-0.56,9.04l-14.52,34.82C401.83,693,400.5,692.48,399.17,691.96z
	 M411.34,696.33c-1.15-0.38-2.31-0.74-3.46-1.14l10.67-29.03c0.49,2.5,1.16,4.95,1.96,7.34L411.34,696.33z M416.17,697.92
	l7.05-17.49c0.86,1.89,1.77,3.69,2.72,5.44l-5.51,13.27C419.01,698.73,417.58,698.35,416.17,697.92z M417.58,703.64
	c2.25,0.66,4.52,1.21,6.79,1.8C421.91,704.88,419.66,704.28,417.58,703.64z M428.64,701.35c-1.1-0.27-2.2-0.58-3.3-0.87l3.77-9.19
	c0.67,1.06,1.33,2.05,1.99,3.02L428.64,701.35z M433.71,702.48l1.13-3.03c1.2,1.56,2.31,2.92,3.23,4
	C436.61,703.15,435.16,702.8,433.71,702.48z M447.6,705.13c0.91-0.5,1.97-1.11,3.11-1.79l0.17,2.31
	C449.78,705.49,448.69,705.3,447.6,705.13z M456.02,706.26l-0.36-6.07c1.23-0.83,2.49-1.7,3.8-2.67l0.21,9.18
	C458.45,706.58,457.23,706.41,456.02,706.26z M464.72,707.14l-0.4-13.48c1.52-1.28,3.03-2.64,4.52-4.09l0.51,17.91
	C467.8,707.38,466.26,707.26,464.72,707.14z M479.1,707.83c-1.56-0.03-3.12-0.05-4.68-0.1l-0.67-23.38c1.95-2.31,3.76-4.78,5.36-7.4
	L479.1,707.83z M480.09,660.94c-4.05,22.2-29.99,37.16-36.82,40.75c-5.12-5.77-24.09-28.9-20.03-51.14
	c4.05-22.2,29.99-37.16,36.82-40.75C465.18,615.56,484.15,638.7,480.09,660.94z M484.11,707.9l-1.15-38.84
	c0.89-2.32,1.65-4.71,2.11-7.22c1.66-9.1-0.04-18.15-3.1-26.28l-0.8-27.17c1.42,0.02,2.85,0.03,4.27,0l2.93,99.4
	C486.95,707.82,485.53,707.9,484.11,707.9z M493.44,707.65l-2.94-99.48c1.43-0.09,2.85-0.18,4.28-0.31l0.88,25.48
	c-3.07,8.85-4.68,18.78-2.3,28.55c0.79,3.24,2,6.29,3.47,9.17l0.88,36.32C496.29,707.47,494.87,707.58,493.44,707.65z M502.72,707
	l-1.97-29.61c1.53,2.13,3.19,4.15,4.96,6.03l0.65,23.27C505.14,706.81,503.93,706.89,502.72,707z M511.39,706.05l-0.64-17.77
	c1.53,1.34,3.07,2.59,4.62,3.77l0.4,13.44C514.31,705.71,512.85,705.87,511.39,706.05z M520.81,704.66l-0.26-8.91
	c1.13,0.75,2.24,1.44,3.31,2.1l0.39,6.21C523.11,704.26,521.96,704.46,520.81,704.66z M529.27,703.09l-0.14-2.25
	c1.12,0.6,2.14,1.12,3.07,1.58C531.22,702.64,530.25,702.89,529.27,703.09z M537.38,699.26c-7.03-3.18-33.77-16.6-39.1-38.56
	c-5.32-21.93,12.28-46.15,17.06-52.2c6.19,2.8,27.65,13.55,36.33,31.07l2.58,6.88c0.06,0.21,0.14,0.41,0.19,0.62
	C559.77,668.99,542.16,693.21,537.38,699.26z M543.5,699.61c0.62-0.84,1.3-1.79,2.02-2.84l0.84,2.04
	C545.41,699.08,544.46,699.35,543.5,699.61z M551.19,697.38l-2.66-5.21c0.83-1.34,1.66-2.79,2.5-4.3l3.73,8.32
	C553.57,696.58,552.38,697.01,551.19,697.38z M559.54,694.59l-5.68-12.3c0.83-1.77,1.62-3.58,2.35-5.48l7.63,16.16
	C562.41,693.52,560.98,694.08,559.54,694.59z M571.27,690.09c-0.89,0.37-1.8,0.69-2.7,1.05l-10.09-21.31
	c0.8-2.96,1.42-5.99,1.74-9.09l12.67,28.62C572.34,689.6,571.82,689.86,571.27,690.09z M577.46,687.33l-17.15-35.66
	c-0.18-1.94-0.46-3.87-0.93-5.81c-2.01-8.26-6.6-15.32-12.07-21.22l-0.6-1.25l-12.34-25.65c1.31-0.56,2.61-1.14,3.9-1.74l43.1,89.58
	C580.07,686.2,578.75,686.74,577.46,687.33z M585.89,683.32l-21.37-44.42c0.76,1.24,1.54,2.47,2.44,3.64
	c2.26,2.93,4.88,5.44,7.71,7.62l15.03,31.23C588.44,682.05,587.16,682.68,585.89,683.32z M594.12,679.01l-13.04-24.72
	c2.19,1.21,4.44,2.28,6.73,3.21l9.48,19.7C596.24,677.81,595.19,678.42,594.12,679.01z M601.7,674.7l-7.25-14.83
	c1.93,0.58,3.83,1.05,5.7,1.47l5.29,10.99C604.18,673.11,602.97,673.94,601.7,674.7z M609.74,669.59l-3.4-7.06
	c1.35,0.21,2.66,0.4,3.91,0.55l2.39,4.57C611.68,668.3,610.71,668.94,609.74,669.59z M616.81,664.69l-0.55-1.06
	c0.65,0.04,1.31,0.09,1.89,0.11C617.71,664.06,617.26,664.37,616.81,664.69z M625.38,637.33l-0.04,0.72l0.01,0.01
	c-0.36,9.33-2.11,17.3-2.98,20.71c-7.71-0.05-37.6-1.43-51.4-19.32c-13.78-17.87-7.55-47.15-5.65-54.63
	c7.72,0.05,37.6,1.43,51.4,19.32C624.06,613.65,625.71,626.37,625.38,637.33z M628.24,656.01c0.23-1.07,0.46-2.24,0.69-3.54
	l1.77,1.49C629.88,654.64,629.07,655.33,628.24,656.01z M634.58,650.59l-4.77-4.02c0.17-1.39,0.32-2.85,0.44-4.36l7.07,6
	C636.43,649.03,635.49,649.8,634.58,650.59z M640.98,644.67l-10.43-8.85c0.02-2.09-0.02-4.22-0.16-6.39l13.94,11.99
	C643.16,642.44,642.05,643.51,640.98,644.67z M647.95,637.86l-18.49-15.88c-0.52-2.97-1.28-5.91-2.29-8.79l23.98,21.3
	C650.09,635.62,649.03,636.75,647.95,637.86z M654.54,630.78l-32.13-27.26c-0.55-0.83-1.05-1.68-1.66-2.48
	c-4.52-5.86-10.46-10.09-16.8-13.18l-3.62-3.07l-21.65-18.36c0.96-1.05,1.9-2.12,2.83-3.2l75.81,64.31
	C656.39,628.63,655.48,629.72,654.54,630.78z M660.62,623.7l-33.43-28.36c3.56,1.81,7.28,3.03,11.07,3.79l24.98,21.19
	C662.36,621.44,661.52,622.59,660.62,623.7z M666.32,616.35l-20.73-16.31c2.41,0.14,4.8,0.16,7.17,0.03l15.74,13.35
	C667.78,614.41,667.05,615.38,666.32,616.35z M671.4,609.26l-11.77-9.86c1.97-0.28,3.88-0.63,5.73-1.03l8.57,7.27
	C673.12,606.87,672.24,608.05,671.4,609.26z M676.65,601.34l-5.31-4.41c1.37-0.38,2.66-0.77,3.9-1.17l3.28,2.6
	C677.91,599.36,677.27,600.35,676.65,601.34z M681.14,593.98l-0.24-0.19c0.16-0.06,0.3-0.12,0.45-0.17
	C681.28,593.73,681.21,593.85,681.14,593.98z M628.73,590.46c-19.86-10.72-26.07-40-27.38-47.61c7.07-3.09,34.99-13.97,54.82-3.25
	c19.86,10.71,26.07,40,27.38,47.61C676.48,590.3,648.57,601.16,628.73,590.46z M687.69,581.85c-0.26-1.23-0.58-2.57-0.95-4.05
	l2.62,0.72C688.81,579.64,688.25,580.74,687.69,581.85z M692.27,572.25c-0.23,0.53-0.46,1.07-0.7,1.6l-6.55-2.01
	c-0.42-1.31-0.88-2.66-1.39-4.04l9.23,2.7C692.65,571.07,692.45,571.66,692.27,572.25z M695.7,564.31c-0.27,0.5-0.53,1.01-0.78,1.51
	l-13.7-4.01c-0.84-1.88-1.8-3.76-2.82-5.63l18.35,5.37C696.39,562.47,696.05,563.39,695.7,564.31z M698.56,556.81l-24.16-7.07
	c-1.57-2.23-3.32-4.34-5.22-6.33l30.93,9.05C699.61,553.91,699.09,555.36,698.56,556.81z M701.68,547.63l-43.79-12.81
	c-4.92-2.53-10.18-3.92-15.47-4.53l-8.8-2.57l-27.33-8c0.46-1.35,0.92-2.7,1.33-4.06L703,543.57
	C702.59,544.93,702.11,546.28,701.68,547.63z M704.33,538.68l-38.85-11.37c3.45-0.11,6.82-0.64,10.08-1.5l29.88,8.74
	C705.09,535.93,704.71,537.31,704.33,538.68z M706.63,529.68l-24.26-6.13c2.15-0.87,4.21-1.87,6.22-2.94l18.81,5.5
	C707.14,527.3,706.9,528.49,706.63,529.68z M708.47,521.15l-13.99-4c1.65-1.08,3.22-2.18,4.72-3.29l10,2.93
	C708.95,518.24,708.75,519.7,708.47,521.15z M710.02,511.81l-6.13-1.66c1.12-0.94,2.17-1.86,3.15-2.75l3.49,0.9
	C710.37,509.47,710.19,510.64,710.02,511.81z M712.14,490.65c-0.92-1.27-2.01-2.7-3.26-4.25l3.5-0.59
	C712.32,487.42,712.22,489.04,712.14,490.65z M712.34,480.66l-7.35,1.17c-1.01-1.12-2.07-2.25-3.2-3.39l10.7-1.45
	C712.4,478.22,712.34,479.44,712.34,480.66z M478.97,200.83c12.44,2.26,24.35-5.99,26.62-18.42c2.26-12.44-5.99-24.35-18.42-26.62
	c-12.44-2.26-24.35,5.99-26.62,18.42C458.28,186.65,466.53,198.56,478.97,200.83z M483.06,164.64c7.55,0,13.67,6.12,13.67,13.67
	s-6.12,13.67-13.67,13.67c-7.55,0-13.67-6.12-13.67-13.67S475.52,164.64,483.06,164.64z M373.3,223.43
	c12.36-2.67,20.21-14.85,17.54-27.21c-2.67-12.36-14.85-20.21-27.21-17.54c-12.36,2.67-20.21,14.85-17.54,27.21
	C348.76,218.25,360.94,226.1,373.3,223.43z M363.23,188.43c6.97-2.89,14.97,0.42,17.86,7.4s-0.42,14.97-7.4,17.86
	c-6.97,2.89-14.97-0.42-17.86-7.4S356.26,191.32,363.23,188.43z M284.32,284.76c10.39-7.2,12.99-21.45,5.79-31.85
	c-7.2-10.39-21.45-12.99-31.85-5.79c-10.39,7.2-12.99,21.45-5.79,31.85C259.66,289.36,273.92,291.95,284.32,284.76z M261.63,256.27
	c5.34-5.34,13.99-5.34,19.33,0c5.34,5.34,5.34,13.99,0,19.33c-5.34,5.34-13.99,5.34-19.33,0
	C256.29,270.26,256.29,261.61,261.63,256.27z M193.94,382.3c10.63,6.85,24.79,3.79,31.64-6.84c6.85-10.63,3.79-24.79-6.84-31.64
	c-10.63-6.85-24.79-3.79-31.64,6.84C180.25,361.28,183.31,375.45,193.94,382.3z M193.72,357.83c2.89-6.97,10.88-10.28,17.86-7.4
	c6.97,2.89,10.28,10.88,7.4,17.85c-2.89,6.97-10.88,10.28-17.86,7.4C194.14,372.8,190.83,364.81,193.72,357.83z M179.41,500.17
	c12.44,2.26,24.35-5.99,26.62-18.42c2.26-12.44-5.99-24.35-18.42-26.62s-24.35,5.99-26.62,18.42
	C158.72,485.99,166.97,497.91,179.41,500.17z M183.51,463.98c7.55,0,13.67,6.12,13.67,13.67c0,7.55-6.12,13.67-13.67,13.67
	s-13.67-6.12-13.67-13.67C169.84,470.1,175.96,463.98,183.51,463.98z M228.63,587.42c-2.67-12.36-14.85-20.21-27.21-17.54
	c-12.36,2.67-20.21,14.85-17.54,27.21c2.67,12.36,14.85,20.21,27.21,17.54C223.45,611.96,231.3,599.78,228.63,587.42z
	 M211.49,604.88c-6.97,2.89-14.97-0.42-17.86-7.4c-2.89-6.97,0.42-14.97,7.4-17.86c6.97-2.89,14.97,0.42,17.85,7.4
	C221.77,594,218.46,601.99,211.49,604.88z M258.11,670.6c-10.39,7.2-12.99,21.45-5.79,31.85c7.2,10.39,21.45,12.99,31.85,5.79
	c10.39-7.2,12.99-21.45,5.79-31.85C282.76,666,268.51,663.41,258.11,670.6z M280.8,699.09c-5.34,5.34-13.99,5.34-19.33,0
	c-5.34-5.34-5.34-13.99,0-19.33c5.34-5.34,13.99-5.34,19.33,0C286.14,685.1,286.14,693.75,280.8,699.09z M380.67,735.13
	c-10.63-6.85-24.79-3.79-31.64,6.84c-6.85,10.63-3.79,24.79,6.84,31.64c10.63,6.85,24.79,3.79,31.64-6.84
	C394.35,756.15,391.29,741.98,380.67,735.13z M380.89,759.6c-2.89,6.97-10.88,10.28-17.86,7.4c-6.97-2.89-10.28-10.88-7.4-17.86
	s10.88-10.28,17.85-7.4C380.47,744.63,383.78,752.63,380.89,759.6z M486.95,754.69c-12.44-2.26-24.35,5.99-26.62,18.42
	c-2.26,12.44,5.99,24.35,18.42,26.62c12.44,2.26,24.35-5.99,26.62-18.42C507.63,768.87,499.39,756.95,486.95,754.69z M482.85,790.87
	c-7.55,0-13.67-6.12-13.67-13.67c0-7.55,6.12-13.67,13.67-13.67c7.55,0,13.67,6.12,13.67,13.67
	C496.52,784.75,490.4,790.87,482.85,790.87z M592.62,732.08c-12.36,2.67-20.21,14.85-17.54,27.21
	c2.67,12.36,14.85,20.21,27.21,17.54c12.36-2.67,20.21-14.85,17.54-27.21C617.16,737.26,604.98,729.41,592.62,732.08z
	 M602.68,767.08c-6.97,2.89-14.97-0.42-17.86-7.4s0.42-14.97,7.4-17.86c6.97-2.89,14.97,0.42,17.86,7.4S609.66,764.19,602.68,767.08
	z M681.6,670.75c-10.39,7.2-12.99,21.45-5.79,31.85c7.2,10.39,21.45,12.99,31.85,5.79c10.39-7.2,12.99-21.45,5.79-31.85
	C706.25,666.15,691.99,663.56,681.6,670.75z M704.29,699.24c-5.34,5.34-13.99,5.34-19.33,0c-5.34-5.34-5.34-13.99,0-19.33
	c5.34-5.34,13.99-5.34,19.33,0C709.63,685.25,709.63,693.9,704.29,699.24z M771.98,573.21c-10.63-6.85-24.79-3.79-31.64,6.84
	c-6.85,10.63-3.79,24.79,6.84,31.64c10.63,6.85,24.79,3.79,31.64-6.84C785.66,594.23,782.6,580.06,771.98,573.21z M772.2,597.68
	c-2.89,6.97-10.88,10.28-17.86,7.4c-6.97-2.89-10.28-10.88-7.4-17.85c2.89-6.97,10.88-10.28,17.86-7.4
	C771.78,582.71,775.09,590.71,772.2,597.68z M786.51,455.34c-12.44-2.26-24.35,5.99-26.62,18.42c-2.26,12.44,5.99,24.35,18.42,26.62
	s24.35-5.99,26.62-18.42C807.19,469.52,798.94,457.6,786.51,455.34z M782.41,491.53c-7.55,0-13.67-6.12-13.67-13.67
	c0-7.55,6.12-13.67,13.67-13.67s13.67,6.12,13.67,13.67C796.08,485.41,789.96,491.53,782.41,491.53z M737.28,368.09
	c2.67,12.36,14.85,20.21,27.21,17.54s20.21-14.85,17.54-27.21c-2.67-12.36-14.85-20.21-27.21-17.54
	C742.47,343.55,734.61,355.74,737.28,368.09z M754.43,350.63c6.97-2.89,14.97,0.42,17.86,7.4c2.89,6.97-0.42,14.97-7.4,17.86
	c-6.97,2.89-14.97-0.42-17.86-7.4C744.14,361.52,747.45,353.52,754.43,350.63z M707.81,284.91c10.39-7.2,12.99-21.45,5.79-31.85
	c-7.2-10.39-21.45-12.99-31.85-5.79c-10.39,7.2-12.99,21.45-5.79,31.85C683.15,289.51,697.41,292.1,707.81,284.91z M685.11,256.42
	c5.34-5.34,13.99-5.34,19.33,0c5.34,5.34,5.34,13.99,0,19.33c-5.34,5.34-13.99,5.34-19.33,0
	C679.78,270.41,679.78,261.76,685.11,256.42z M585.25,220.38c10.63,6.85,24.79,3.79,31.64-6.84c6.85-10.63,3.79-24.79-6.84-31.64
	c-10.63-6.85-24.79-3.79-31.64,6.84C571.56,199.36,574.62,213.53,585.25,220.38z M585.03,195.91c2.89-6.97,10.88-10.28,17.86-7.4
	c6.97,2.89,10.28,10.88,7.4,17.86s-10.88,10.28-17.86,7.4C585.45,210.88,582.14,202.88,585.03,195.91z"/>
</svg>
